REM DIRINDEX 1\2\6,1\2\7,1\2\8,1\2\9,1\3\10,1\3\11,1\4\12,1\4\13,1\4\14,1\5\15,1\5\16,1\5\17
REM DIRNAME cjc020,folder01,folder02,folder03,folder04,folder05,folder06,folder07,folder08,folder09,folder10,folder11,folder12,folder13,folder14,folder15,folder16
TITLE ""
FILE "1900_3_025 sec05_0401_0415.mp3" MP3
  TRACK 01 AUDIO
    TITLE "0:"
    INDEX 01 00:00:00
  TRACK 02 AUDIO
    TITLE "15:cjc020_6771"
    INDEX 01 00:00:19
  TRACK 03 AUDIO
    TITLE "0:"
    INDEX 01 00:01:56
  TRACK 04 AUDIO
    TITLE "17:cjc020_6772"
    INDEX 01 00:02:59
  TRACK 05 AUDIO
    TITLE "0:"
    INDEX 01 00:04:03
  TRACK 06 AUDIO
    TITLE "16:cjc020_6773"
    INDEX 01 00:04:07
  TRACK 07 AUDIO
    TITLE "0:"
    INDEX 01 00:05:18
  TRACK 08 AUDIO
    TITLE "17:cjc020_6774"
    INDEX 01 00:06:02
  TRACK 09 AUDIO
    TITLE "0:"
    INDEX 01 00:07:07
  TRACK 10 AUDIO
    TITLE "16:cjc020_6775"
    INDEX 01 00:07:13
  TRACK 11 AUDIO
    TITLE "0:"
    INDEX 01 00:08:30
  TRACK 12 AUDIO
    TITLE "17:cjc020_6776"
    INDEX 01 00:09:08
  TRACK 13 AUDIO
    TITLE "0:"
    INDEX 01 00:10:12
  TRACK 14 AUDIO
    TITLE "16:cjc020_6777"
    INDEX 01 00:10:18
  TRACK 15 AUDIO
    TITLE "0:"
    INDEX 01 00:11:27
  TRACK 16 AUDIO
    TITLE "17:cjc020_6778"
    INDEX 01 00:12:14
  TRACK 17 AUDIO
    TITLE "0:"
    INDEX 01 00:13:41
  TRACK 18 AUDIO
    TITLE "16:cjc020_6779"
    INDEX 01 00:13:43
  TRACK 19 AUDIO
    TITLE "0:"
    INDEX 01 00:14:56
  TRACK 20 AUDIO
    TITLE "17:cjc020_6780"
    INDEX 01 00:15:40
  TRACK 21 AUDIO
    TITLE "0:"
    INDEX 01 00:16:69
  TRACK 22 AUDIO
    TITLE "16:cjc020_6781"
    INDEX 01 00:16:73
  TRACK 23 AUDIO
    TITLE "0:"
    INDEX 01 00:18:07
  TRACK 24 AUDIO
    TITLE "17:cjc020_6782"
    INDEX 01 00:18:68
  TRACK 25 AUDIO
    TITLE "0:"
    INDEX 01 00:20:18
  TRACK 26 AUDIO
    TITLE "16:cjc020_6783"
    INDEX 01 00:20:24
  TRACK 27 AUDIO
    TITLE "0:"
    INDEX 01 00:21:37
  TRACK 28 AUDIO
    TITLE "17:cjc020_6784"
    INDEX 01 00:22:23
  TRACK 29 AUDIO
    TITLE "0:"
    INDEX 01 00:23:36
  TRACK 30 AUDIO
    TITLE "16:cjc020_6785"
    INDEX 01 00:23:50
  TRACK 31 AUDIO
    TITLE "0:"
    INDEX 01 00:24:59
  TRACK 32 AUDIO
    TITLE "17:cjc020_6786"
    INDEX 01 00:25:45
  TRACK 33 AUDIO
    TITLE "0:"
    INDEX 01 00:26:71
  TRACK 34 AUDIO
    TITLE "16:cjc020_6787"
    INDEX 01 00:26:73
  TRACK 35 AUDIO
    TITLE "0:"
    INDEX 01 00:28:31
  TRACK 36 AUDIO
    TITLE "17:cjc020_6788"
    INDEX 01 00:29:13
  TRACK 37 AUDIO
    TITLE "0:"
    INDEX 01 00:30:26
  TRACK 38 AUDIO
    TITLE "16:cjc020_6789"
    INDEX 01 00:30:30
  TRACK 39 AUDIO
    TITLE "0:"
    INDEX 01 00:31:49
  TRACK 40 AUDIO
    TITLE "17:cjc020_6790"
    INDEX 01 00:32:33
  TRACK 41 AUDIO
    TITLE "0:"
    INDEX 01 00:33:52
  TRACK 42 AUDIO
    TITLE "16:cjc020_6791"
    INDEX 01 00:33:58
  TRACK 43 AUDIO
    TITLE "0:"
    INDEX 01 00:34:71
  TRACK 44 AUDIO
    TITLE "17:cjc020_6792"
    INDEX 01 00:35:55
  TRACK 45 AUDIO
    TITLE "0:"
    INDEX 01 00:36:68
  TRACK 46 AUDIO
    TITLE "16:cjc020_6793"
    INDEX 01 00:37:01
  TRACK 47 AUDIO
    TITLE "0:"
    INDEX 01 00:38:33
  TRACK 48 AUDIO
    TITLE "17:cjc020_6794"
    INDEX 01 00:39:15
  TRACK 49 AUDIO
    TITLE "0:"
    INDEX 01 00:40:46
  TRACK 50 AUDIO
    TITLE "16:cjc020_6795"
    INDEX 01 00:40:52
  TRACK 51 AUDIO
    TITLE "0:"
    INDEX 01 00:41:69
  TRACK 52 AUDIO
    TITLE "17:cjc020_6796"
    INDEX 01 00:42:53
  TRACK 53 AUDIO
    TITLE "0:"
    INDEX 01 00:43:50
  TRACK 54 AUDIO
    TITLE "16:cjc020_6797"
    INDEX 01 00:43:62
  TRACK 55 AUDIO
    TITLE "0:"
    INDEX 01 00:45:04
  TRACK 56 AUDIO
    TITLE "17:cjc020_6798"
    INDEX 01 00:45:63
  TRACK 57 AUDIO
    TITLE "0:"
    INDEX 01 00:47:52
  TRACK 58 AUDIO
    TITLE "16:cjc020_6799"
    INDEX 01 00:47:56
  TRACK 59 AUDIO
    TITLE "0:"
    INDEX 01 00:48:53
  TRACK 60 AUDIO
    TITLE "17:cjc020_6800"
    INDEX 01 00:49:37
  TRACK 61 AUDIO
    TITLE "0:"
    INDEX 01 00:51:42
  TRACK 62 AUDIO
    TITLE "16:cjc020_6801"
    INDEX 01 00:51:48
  TRACK 63 AUDIO
    TITLE "0:"
    INDEX 01 00:52:65
